# AST/ASF file generated using VICON BodyLanguage
# -----------------------------------------------
:version 1.10
:name VICON
:units
  mass 1.0
  length 0.45
  angle deg
:documentation
   .ast/.asf automatically generated from VICON data using
   VICON BodyBuilder and BodyLanguage model FoxedUp or BRILLIANT.MOD
:root
   order TX TY TZ RX RY RZ
   axis XYZ
   position 0 0 0  
   orientation 0 0 0 
:bonedata
  begin
     id 1 
     name lhipjoint
     direction 0.606768 -0.715223 0.346827 
     length 2.41543 
     axis 0 0 0  XYZ
  end
  begin
     id 2 
     name lfemur
     direction 0.34202 -0.939693 0  
     length 7.2778  
     axis 0 0 20  XYZ
    dof rx ry rz
    limits (-160.0 20.0)
           (-70.0 70.0)
           (-60.0 70.0)
  end
  begin
     id 3 
     name ltibia
     direction 0.34202 -0.939693 0   
     length 7.61811   
     axis 0 0 20   XYZ
    dof rx
    limits (-10.0 170.0)
  end
  begin
     id 4 
     name lfoot
     direction 0.0823924 -0.226371 0.97055   
     length 2.33618   
     axis -90 7.62852e-016 20   XYZ
    dof rx rz
    limits (-45.0 90.0)
           (-70.0 20.0)
  end
  begin
     id 5 
     name ltoes
     direction 1.53554e-011 -4.21934e-011 1   
     length 1.17015   
     axis -90 7.62852e-016 20   XYZ
    dof rx
    limits (-90.0 20.0)
  end
  begin
     id 6 
     name rhipjoint
     direction -0.6077 -0.714582 0.346516   
     length 2.4176  
     axis 0 0 0  XYZ 
  end
  begin
     id 7 
     name rfemur
     direction -0.34202 -0.939693 0   
     length 7.28127   
     axis 0 0 -20   XYZ
    dof rx ry rz
    limits (-160.0 20.0)
           (-70.0 70.0)
           (-70.0 60.0)
  end
  begin
     id 8 
     name rtibia
     direction -0.34202 -0.939693 0   
     length 7.77648   
     axis 0 0 -20   XYZ
    dof rx
    limits (-10.0 170.0)
 end
 begin
     id 9 
     name rfoot
     direction -0.0809463 -0.222398 0.97159   
     length 2.37533  
     axis -90 -7.62852e-016 -20   XYZ
    dof rx rz
    limits (-45.0 90.0)
           (-20.0 70.0)
  end
  begin
     id 10 
     name rtoes
     direction -1.53568e-011 -4.21714e-011 1   
     length 1.18972   
     axis -90 -7.62852e-016 -20   XYZ
    dof rx
    limits (-90.0 20.0)
  end
  begin
     id 11 
     name lowerback
     direction 0.010968 0.991932 -0.126297   
     length 2.21698   
     axis 0 0 0   XYZ
    dof rx ry rz
    limits (-20.0 45.0)
           (-30.0 30.0)
           (-30.0 30.0)
  end
  begin
     id 12 
     name upperback
     direction 0.0167007 0.997503 -0.0686276   
     length 2.22371   
     axis 0 0 0   XYZ
    dof rx ry rz
    limits (-20.0 45.0)
           (-30.0 30.0)
           (-30.0 30.0)
  end
  begin
     id 13 
     name thorax
     direction 0.0111721 0.999885 -0.0102878   
     length 2.25242   
     axis 0 0 0   XYZ
    dof rx ry rz
    limits (-20.0 45.0)
           (-30.0 30.0)
           (-30.0 30.0)
  end
  begin
     id 14 
     name lowerneck
     direction -0.0120265 0.990428 0.137508   
     length 1.57674   
     axis 0 0 0   XYZ
    dof rx ry rz
    limits (-20.0 45.0)
           (-30.0 30.0)
           (-30.0 30.0)
  end
  begin
     id 15 
     name upperneck
     direction 0.0175669 0.998907 0.0433089   
     length 1.5618   
     axis 0 0 0   XYZ
    dof rx ry rz
    limits (-20.0 45.0)
           (-30.0 30.0)
           (-30.0 30.0)
  end
  begin
     id 16
     name head
     direction 0.00754609 0.99997 0.00185367  
     length 1.60579  
     axis 0 0 0   XYZ
    dof rx ry rz
    limits (-20.0 45.0)
           (-30.0 30.0)
           (-30.0 30.0)
  end
  begin
     id 17 
     name lclavicle
     direction 0.885866 0.429166 -0.176231  
     length 3.44967  
     axis 0 0 0   XYZ
    dof ry rz
    limits (-20.0 10.0)
           (0.0 20.0)
  end
  begin
     id 18 
     name lhumerus
     direction 1 -4.48973e-011 -1.90255e-027   
     length 5.20607   
     axis 180 -30 -90   XYZ
    dof rx ry rz
    limits (-60.0 90.0)
           (-90.0 90.0)
           (-90.0 90.0)
  end
  begin
     id 19
     name lradius
     direction 1 -4.48956e-011 9.87925e-027   
     length 3.39961   
     axis 180 -30 -90   XYZ
    dof rx
    limits (-10.0 170.0)
  end
  begin
     id 20
     name lwrist
     direction 1 -4.48985e-011 1.73247e-026   
     length 1.6998   
     axis -9.60847e-015 90 90   XYZ
    dof ry
    limits (-180.0 0.0)
 end
  begin
     id 21 
     name lhand
     direction 1 -4.48798e-011 3.46119e-026   
     length 0.519693   
     axis -2.21073e-014 90 90   XYZ
    dof rx rz
    limits (-90.0 90.0)
           (-45.0 45.0)
  end
  begin
     id 22 
     name lfingers
     direction 1 -4.48938e-011 6.92797e-026   
     length 0.41899   
     axis -4.42155e-014 90 90   XYZ
    dof rx
    limits (0.0 90.0)
  end
  begin
     id 23
     name lthumb
     direction 0.707107 -6.34952e-011 0.707107   
     length 0.601588   
     axis -90 45 6.0103e-014   XYZ
    dof rx rz
    limits (-45.0 45.0)
           (-45.0 45.0)
  end
  begin
     id 24 
     name rclavicle
     direction -0.866736 0.456792 -0.200276   
     length 3.45032  
     axis 0 0 0   XYZ 
    dof ry rz
    limits (-10.0 20.0)
           (-20.0 0.0)
  end
  begin
     id 25 
     name rhumerus
     direction -1 -4.4897e-011 8.65094e-028  
     length 5.32214   
     axis 180 30 90   XYZ
    dof rx ry rz
    limits (-90.0 60.0)
           (-90.0 90.0)
           (-90.0 90.0)
  end
  begin
     id 26 
     name rradius
     direction -1 -4.48987e-011 1.08427e-026   
     length 3.51208   
     axis 180 30 90   XYZ
    dof rx
    limits (-10.0 170.0)
  end
  begin
     id 27 
     name rwrist
     direction -1 -4.48961e-011 1.73222e-026   
     length 1.75604   
     axis -9.60847e-015 -90 -90   XYZ
    dof ry
    limits (-180.0 0.0)
  end
  begin
     id 28
     name rhand
     direction -1 -4.48895e-011 3.46314e-026   
     length 0.586681   
     axis -2.21073e-014 -90 -90   XYZ
    dof rx rz
    limits (-90.0 90.0)
           (-45.0 45.0)
  end
  begin
     id 29
     name rfingers
     direction -1 -4.48968e-011 6.92916e-026   
     length 0.472997   
     axis -4.42155e-014 -90 -90   XYZ
    dof rx
    limits (0.0 90.0)
  end
  begin
     id 30
     name rthumb
     direction -0.707107 -6.34848e-011 0.707107   
     length 0.679133   
     axis -90 -45 -6.0103e-014   XYZ
    dof rx rz
    limits (-45.0 45.0)
           (-45.0 45.0)
  end
:hierarchy
  begin
    root lhipjoint rhipjoint lowerback
    lhipjoint lfemur
    lfemur ltibia
    ltibia lfoot
    lfoot ltoes
    rhipjoint rfemur
    rfemur rtibia
    rtibia rfoot
    rfoot rtoes
    lowerback upperback
    upperback thorax
    thorax lowerneck lclavicle rclavicle
    lowerneck upperneck
    upperneck head
    lclavicle lhumerus
    lhumerus lradius
    lradius lwrist
    lwrist lhand lthumb
    lhand lfingers
    rclavicle rhumerus
    rhumerus rradius
    rradius rwrist
    rwrist rhand rthumb
    rhand rfingers
  end

#!OML:ASF H:\Dans Jumps\Project 1\Capture day 1\Session 1\subject.ASF
:FULLY-SPECIFIED
:DEGREES
62
root 0.632553 17.4835 -13.6277 5.56715 -1.24111 -1.97287
lowerback -3.04474 0.039462 0.602565
upperback 1.1382 -0.0158129 1.56705
thorax 2.87697 -0.0117936 1.27171
lowerneck -15.4593 -0.173604 -2.1226
upperneck 17.0848 0.0570507 1.07489
head 7.82467 -0.00574322 0.711634
rclavicle -4.89507e-015 9.34288e-015
rhumerus -24.6496 -16.575 -79.7963
rradius 23.7242
rwrist 34.0872
rhand -18.8177 -25.3909
rfingers 7.12502
rthumb 7.48114 -55.2386
lclavicle -4.89507e-015 9.34288e-015
lhumerus -22.898 1.80096 87.1498
lradius 17.2648
lwrist 1.05139
lhand -24.1631 -3.20805
lfingers 7.12502
lthumb 2.3198 26.7591
rfemur -10.9853 -3.49026 20.5682
rtibia 21.5543
rfoot -15.326 -2.4983
rtoes 9.07601
lfemur -10.4981 6.8231 -17.5517
ltibia 20.5754
lfoot -12.4665 8.01215
ltoes -6.09903
63
root 0.633375 17.4834 -13.6277 5.56894 -1.24256 -1.96704
lowerback -3.04122 0.0398265 0.593222
upperback 1.1417 -0.0149171 1.56629
thorax 2.87859 -0.0115182 1.27623
lowerneck -15.4556 -0.177002 -2.12478
upperneck 17.0923 0.0518508 1.07969
head 7.82658 -0.00792545 0.713027
rclavicle -2.6339e-015 -1.05356e-014
rhumerus -24.6445 -16.5381 -79.8135
rradius 23.7395
rwrist 34.0647
rhand -18.8171 -25.3691
rfingers 7.12502
rthumb 7.48166 -55.2168
lclavicle -2.6339e-015 -1.05356e-014
lhumerus -22.8855 1.7864 87.1479
lradius 17.2703
lwrist 1.06711
lhand -24.1589 -3.19657
lfingers 7.12502
lthumb 2.32389 26.7705
rfemur -10.9925 -3.48425 20.5589
rtibia 21.5624
rfoot -15.329 -2.50505
rtoes 9.06016
lfemur -10.4996 6.82119 -17.5614
ltibia 20.5737
lfoot -12.4657 8.01401
ltoes -6.08473
64
root 0.634173 17.4832 -13.6278 5.56995 -1.24436 -1.96302
lowerback -3.03612 0.0391886 0.584915
upperback 1.1447 -0.0154034 1.56678
thorax 2.87881 -0.011923 1.28136
lowerneck -15.4506 -0.179494 -2.13134
upperneck 17.1003 0.0481057 1.08854
head 7.82839 -0.00930861 0.716644
rclavicle 4.84538e-015 -5.96354e-015
rhumerus -24.6402 -16.4977 -79.8313
rradius 23.7535
rwrist 34.0442
rhand -18.8221 -25.3484
rfingers 7.12502
rthumb 7.47691 -55.1963
lclavicle 4.84538e-015 -5.96354e-015
lhumerus -22.8754 1.77279 87.1472
lradius 17.276
lwrist 1.08024
lhand -24.1549 -3.18889
lfingers 7.12502
lthumb 2.32776 26.7782
rfemur -10.9985 -3.47536 20.5515
rtibia 21.5699
rfoot -15.3315 -2.51351
rtoes 9.04738
lfemur -10.5018 6.82188 -17.5693
ltibia 20.574
lfoot -12.4639 8.01668
ltoes -6.08972
65
root 0.634953 17.483 -13.6279 5.57128 -1.24676 -1.9632
lowerback -3.02817 0.0383396 0.580327
upperback 1.14548 -0.0162892 1.56886
thorax 2.87516 -0.0124669 1.28601
lowerneck -15.4431 -0.181485 -2.13975
upperneck 17.1119 0.0450838 1.0991
head 7.83096 -0.0103216 0.721225
rclavicle 2.50966e-015 -6.75868e-015
rhumerus -24.64 -16.4522 -79.8495
rradius 23.7696
rwrist 34.02
rhand -18.8314 -25.3336
rfingers 7.12502
rthumb 7.46794 -55.1818
lclavicle 2.50966e-015 -6.75868e-015
lhumerus -22.8715 1.75831 87.1473
lradius 17.2855
lwrist 1.08898
lhand -24.1519 -3.19384
lfingers 7.12502
lthumb 2.33068 26.7732
rfemur -11.0045 -3.46634 20.5488
rtibia 21.5762
rfoot -15.3334 -2.5204
rtoes 9.04155
lfemur -10.5054 6.82234 -17.5726
ltibia 20.5765
lfoot -12.4628 8.02042
ltoes -6.09439
66
root 0.635696 17.4828 -13.628 5.57269 -1.24922 -1.96426
lowerback -3.01909 0.0374355 0.575665
upperback 1.14509 -0.0172222 1.57145
thorax 2.86966 -0.0130366 1.29122
lowerneck -15.4415 -0.181174 -2.14265
upperneck 17.1301 0.0449058 1.10516
head 7.83672 -0.0100869 0.723762
rclavicle 1.83876e-015 3.77691e-015
rhumerus -24.6403 -16.4092 -79.867
rradius 23.7841
rwrist 33.9968
rhand -18.8416 -25.3267
rfingers 7.12502
rthumb 7.45801 -55.1753
lclavicle 1.83876e-015 3.77691e-015
lhumerus -22.8703 1.73805 87.149
lradius 17.2963
lwrist 1.0946
lhand -24.1511 -3.21832
lfingers 7.12502
lthumb 2.33144 26.7487
rfemur -11.0093 -3.45598 20.5472
rtibia 21.5809
rfoot -15.3346 -2.52759
rtoes 9.04449
lfemur -10.5095 6.82447 -17.5749
ltibia 20.5804
lfoot -12.463 8.02314
ltoes -6.10402
67
root 0.636467 17.4827 -13.6281 5.5733 -1.25195 -1.96637
lowerback -3.00704 0.0369692 0.572756
upperback 1.14264 -0.0175756 1.57449
thorax 2.86036 -0.013282 1.29592
lowerneck -15.4417 -0.179394 -2.14
upperneck 17.1518 0.046683 1.105
head 7.84393 -0.00918671 0.723563
rclavicle 1.66482e-015 -2.14687e-014
rhumerus -24.6442 -16.3697 -79.8815
rradius 23.7988
rwrist 33.9766
rhand -18.8527 -25.3207
rfingers 7.12502
rthumb 7.44735 -55.1696
lclavicle 1.66482e-015 -2.14687e-014
lhumerus -22.873 1.70906 87.1539
lradius 17.3096
lwrist 1.10002
lhand -24.1536 -3.23313
lfingers 7.12502
lthumb 2.32898 26.7339
rfemur -11.0115 -3.44495 20.5465
rtibia 21.5835
rfoot -15.335 -2.53403
rtoes 9.05722
lfemur -10.5125 6.82704 -17.5759
ltibia 20.585
lfoot -12.4651 8.02478
ltoes -6.11202
68
root 0.637296 17.4826 -13.6281 5.57477 -1.25484 -1.96709
lowerback -2.99552 0.0372199 0.569267
upperback 1.13859 -0.0169095 1.57681
thorax 2.84969 -0.0130179 1.30025
lowerneck -15.4428 -0.177642 -2.13441
upperneck 17.1753 0.0483495 1.10177
head 7.85188 -0.00845685 0.721858
rclavicle -1.71452e-015 -4.57205e-015
rhumerus -24.6506 -16.3322 -79.8951
rradius 23.817
rwrist 33.9527
rhand -18.8617 -25.3189
rfingers 7.12502
rthumb 7.43863 -55.1681
lclavicle -1.71452e-015 -4.57205e-015
lhumerus -22.8772 1.66988 87.1617
lradius 17.3248
lwrist 1.1082
lhand -24.1586 -3.23656
lfingers 7.12502
lthumb 2.32423 26.7305
rfemur -11.0134 -3.43827 20.544
rtibia 21.584
rfoot -15.3338 -2.53711
rtoes 9.06572
lfemur -10.5154 6.83006 -17.5786
ltibia 20.5894
lfoot -12.4689 8.02438
ltoes -6.11123
69
root 0.638176 17.4826 -13.628 5.57673 -1.25804 -1.9683
lowerback -2.98354 0.0377679 0.567607
upperback 1.13359 -0.0158836 1.57855
thorax 2.83777 -0.0125322 1.30298
lowerneck -15.4437 -0.176533 -2.12569
upperneck 17.1987 0.0492752 1.09405
head 7.8598 -0.00831843 0.718067
rclavicle 1.63997e-015 4.37326e-015
rhumerus -24.659 -16.2931 -79.9099
rradius 23.8407
rwrist 33.9224
rhand -18.8694 -25.3145
rfingers 7.12502
rthumb 7.43118 -55.164
lclavicle 1.63997e-015 4.37326e-015
lhumerus -22.8817 1.6224 87.1712
lradius 17.3436
lwrist 1.12105
lhand -24.1645 -3.22038
lfingers 7.12502
lthumb 2.31846 26.7468
rfemur -11.0149 -3.43381 20.542
rtibia 21.5829
rfoot -15.3317 -2.53812
rtoes 9.07396
lfemur -10.5183 6.83197 -17.5808
ltibia 20.5934
lfoot -12.4734 8.02525
ltoes -6.11121
70
root 0.639086 17.4827 -13.628 5.57984 -1.2618 -1.97008
lowerback -2.97295 0.037849 0.566242
upperback 1.12866 -0.0155414 1.58122
thorax 2.82673 -0.0123916 1.30646
lowerneck -15.4371 -0.177867 -2.12429
upperneck 17.2132 0.047721 1.09003
head 7.86349 -0.0094479 0.716379
rclavicle 3.926e-015 -1.51076e-014
rhumerus -24.6658 -16.2493 -79.9256
rradius 23.8685
rwrist 33.8852
rhand -18.8766 -25.3119
rfingers 7.12502
rthumb 7.42431 -55.1616
lclavicle 3.926e-015 -1.51076e-014
lhumerus -22.8837 1.57835 87.1811
lradius 17.3613
lwrist 1.13373
lhand -24.1712 -3.18564
lfingers 7.12502
lthumb 2.31204 26.7816
rfemur -11.0176 -3.43136 20.5409
rtibia 21.5805
rfoot -15.3288 -2.53838
rtoes 9.0697
lfemur -10.5224 6.83551 -17.5825
ltibia 20.5968
lfoot -12.4776 8.02569
ltoes -6.1077
71
root 0.640044 17.4827 -13.6278 5.58377 -1.26704 -1.97154
lowerback -2.96506 0.0384274 0.566255
upperback 1.12549 -0.014632 1.58268
thorax 2.819 -0.0119382 1.30798
lowerneck -15.4274 -0.181629 -2.12492
upperneck 17.223 0.0430042 1.08731
head 7.86511 -0.0120694 0.715078
rclavicle 1.66482e-015 7.95139e-016
rhumerus -24.6686 -16.2015 -79.9456
rradius 23.9022
rwrist 33.8348
rhand -18.879 -25.3182
rfingers 7.12502
rthumb 7.42199 -55.168
lclavicle 1.66482e-015 7.95139e-016
lhumerus -22.8821 1.5376 87.1888
lradius 17.379
lwrist 1.14699
lhand -24.1745 -3.13926
lfingers 7.12502
lthumb 2.30882 26.828
rfemur -11.0211 -3.43094 20.5395
rtibia 21.5772
rfoot -15.3256 -2.5366
rtoes 9.04968
lfemur -10.5269 6.83979 -17.5847
ltibia 20.6002
lfoot -12.4818 8.02592
ltoes -6.09282
72
root 0.641017 17.4827 -13.6277 5.58883 -1.27378 -1.97357
lowerback -2.96027 0.0390161 0.567065
upperback 1.12363 -0.0138186 1.58435
thorax 2.81438 -0.011526 1.30927
lowerneck -15.4163 -0.185802 -2.12877
upperneck 17.2293 0.0381085 1.0864
head 7.86533 -0.0147942 0.714874
rclavicle -1.63997e-015 1.19271e-015
rhumerus -24.6684 -16.149 -79.9676
rradius 23.9387
rwrist 33.7788
rhand -18.8784 -25.3305
rfingers 7.12502
rthumb 7.42253 -55.1803
lclavicle -1.63997e-015 1.19271e-015
lhumerus -22.8767 1.5068 87.1944
lradius 17.3938
lwrist 1.15941
lhand -24.1759 -3.08379
lfingers 7.12502
lthumb 2.30751 26.8835
rfemur -11.0258 -3.42983 20.5387
rtibia 21.5739
rfoot -15.3226 -2.53391
rtoes 9.02654
lfemur -10.5322 6.84415 -17.5864
ltibia 20.6032
lfoot -12.4849 8.02718
ltoes -6.0737
73
root 0.64198 17.4828 -13.6276 5.59385 -1.28472 -1.976
lowerback -2.95742 0.0405576 0.568808
upperback 1.12369 -0.0118263 1.58568
thorax 2.8128 -0.0105128 1.30976
lowerneck -15.4052 -0.190074 -2.1337
upperneck 17.2338 0.033227 1.08606
head 7.86497 -0.0175206 0.715028
rclavicle -5.66536e-015 2.00773e-014
rhumerus -24.6642 -16.0919 -79.9931
rradius 23.9788
rwrist 33.7118
rhand -18.8687 -25.3561
rfingers 7.12502
rthumb 7.43192 -55.2056
lclavicle -5.66536e-015 2.00773e-014
lhumerus -22.8689 1.49129 87.196
lradius 17.4077
lwrist 1.16635
lhand -24.1749 -3.02877
lfingers 7.12502
lthumb 2.30844 26.9385
rfemur -11.0312 -3.42687 20.5382
rtibia 21.5715
rfoot -15.319 -2.52992
rtoes 8.99798
lfemur -10.5362 6.85052 -17.5876
ltibia 20.6056
lfoot -12.4877 8.02923
ltoes -6.04922
